<svg id="Layer_1" data-name="Layer 1" xmlns="http://www.w3.org/2000/svg" viewBox="0 0 48 48"><defs><style>.cls-1{fill:#02486e;}</style></defs><title>Mansta_Ikonos</title><path class="cls-1" d="M24,0A24,24,0,1,0,48,24,24,24,0,0,0,24,0ZM39,39a21.26,21.26,0,1,1,6.23-15A21.19,21.19,0,0,1,39,39Z"/><path class="cls-1" d="M23.37,20.21l2,2,1.38-1.38a.34.34,0,0,1,.3-.1l.28.28a.34.34,0,0,1-.1.3l-1.38,1.38,2,2,2.14-2.14a6.49,6.49,0,0,0,7.67-9l-3.74,3.74-3.1-3.1,3.74-3.74a6.48,6.48,0,0,0-9,7.67Z"/><path class="cls-1" d="M22.66,25.82l-8.09,8.09a.34.34,0,0,1-.49-.49l8.09-8.09-2-2-8.37,8.37a3.13,3.13,0,0,0,4.42,4.42l8.37-8.37Z"/><rect class="cls-1" x="22.47" y="2.74" width="3.07" height="42.52" transform="translate(-9.94 24) rotate(-45)"/></svg>