<svg id="Layer_1" data-name="Layer 1" xmlns="http://www.w3.org/2000/svg" viewBox="0 0 54 48"><defs><style>.cls-1{fill:#02486e;}</style></defs><title>Mansta_Ikonos</title><path class="cls-1" d="M43.85,44.82A9.79,9.79,0,1,1,53.64,35,9.8,9.8,0,0,1,43.85,44.82Zm0-17.17A7.38,7.38,0,1,0,51.23,35,7.39,7.39,0,0,0,43.85,27.65Z"/><path class="cls-1" d="M43.82,40.66l-3.67-3.18a1.32,1.32,0,0,1,1.72-2l1.45,1.26L46.58,32a1.32,1.32,0,0,1,2.17,1.49Z"/><path class="cls-1" d="M34.07,42.9A21.29,21.29,0,1,1,45.56,22.72a12.66,12.66,0,0,1,2.77.57A24,24,0,1,0,36,45a12.8,12.8,0,0,1-1.93-2.08"/><rect class="cls-1" x="32.04" y="22.17" width="7.47" height="2.57"/><rect class="cls-1" x="9.27" y="22.17" width="7.47" height="2.57"/><rect class="cls-1" x="9.27" y="22.17" width="7.47" height="2.57" transform="translate(36.46 10.45) rotate(90)"/><path class="cls-1" d="M28.53,29.58V10.81a4,4,0,0,0-4-4h-.27a4,4,0,0,0-4,4V29.58a6.09,6.09,0,1,0,8.32,0Zm-6-18.53a1.81,1.81,0,0,1,3.62,0v3.67H22.53Zm1.84,27.06a4.08,4.08,0,0,1-2.19-7.53l.47.74a3.21,3.21,0,1,0,3.38,0l.46-.75a4.08,4.08,0,0,1-2.12,7.57Z"/></svg>