<svg id="Layer_1" data-name="Layer 1" xmlns="http://www.w3.org/2000/svg" viewBox="0 0 48 48"><defs><style>.cls-1{fill:#02486e;}</style></defs><title>Mansta_Ikonos</title><path class="cls-1" d="M24,0A24,24,0,1,0,48,24,24,24,0,0,0,24,0ZM39,39a21.26,21.26,0,1,1,6.23-15A21.19,21.19,0,0,1,39,39Z"/><path class="cls-1" d="M32.47,29.06l2.82,2.82a13.45,13.45,0,0,0,.25-2.69,11.92,11.92,0,0,0-1.39-5.86,9,9,0,0,1-1.09-4.54,9,9,0,0,1,1.09-4.54A11.92,11.92,0,0,0,35.55,8.4H32.48a9,9,0,0,1-1.09,4.54A11.92,11.92,0,0,0,30,18.8a11.92,11.92,0,0,0,1.39,5.86A8.93,8.93,0,0,1,32.47,29.06Z"/><path class="cls-1" d="M15.53,18.94,12.7,16.11a13.44,13.44,0,0,0-.25,2.69,11.92,11.92,0,0,0,1.39,5.86,9,9,0,0,1,1.09,4.54,9,9,0,0,1-1.09,4.54,11.92,11.92,0,0,0-1.39,5.86h3.07a9,9,0,0,1,1.09-4.54A11.92,11.92,0,0,0,18,29.2a11.92,11.92,0,0,0-1.39-5.86A8.93,8.93,0,0,1,15.53,18.94Z"/><path class="cls-1" d="M23.47,26.88a9.92,9.92,0,0,1,.24,2.32,9,9,0,0,1-1.09,4.54,11.92,11.92,0,0,0-1.39,5.86h3.07a9,9,0,0,1,1.09-4.54,11.81,11.81,0,0,0,1.36-4.9Z"/><path class="cls-1" d="M24.53,21.12a9.91,9.91,0,0,1-.24-2.32,9,9,0,0,1,1.09-4.54A11.92,11.92,0,0,0,26.78,8.4H23.71a9,9,0,0,1-1.09,4.54,11.81,11.81,0,0,0-1.36,4.9Z"/><path class="cls-1" d="M31,34.46A11.59,11.59,0,0,0,30,39.6h3.07a9.28,9.28,0,0,1,.36-2.77Z"/><path class="cls-1" d="M17,13.54A11.59,11.59,0,0,0,18,8.4H14.94a9.28,9.28,0,0,1-.36,2.77Z"/><rect class="cls-1" x="22.47" y="2.74" width="3.07" height="42.52" transform="translate(-9.94 24) rotate(-45)"/></svg>