<svg id="Layer_1" data-name="Layer 1" xmlns="http://www.w3.org/2000/svg" xmlns:xlink="http://www.w3.org/1999/xlink" viewBox="0 0 48 48"><defs><style>.cls-1{fill:none;}.cls-2{fill:#02486e;}.cls-3{clip-path:url(#clip-path);}</style><clipPath id="clip-path"><path class="cls-1" d="M7.34,24A17.28,17.28,0,1,0,24.62,6.72,17.28,17.28,0,0,0,7.34,24"/></clipPath></defs><title>Mansta_Ikonos</title><path class="cls-2" d="M24,1.37V2.74A21.26,21.26,0,1,1,9,9,21.19,21.19,0,0,1,24,2.74V0A24,24,0,1,0,48,24,24,24,0,0,0,24,0Z"/><g class="cls-3"><path class="cls-2" d="M39.89,41.43a27,27,0,0,1-9.06-1.73c-5.2-1.87-7.41-1.2-13.32.6l-1.45.44C8.63,43-2,38.3-2.44,38.1l1.14-2.56h0C-1.17,35.59,8.84,40,15.25,38l1.44-.44c6-1.82,9-2.73,15.08-.55,5.83,2.09,10.72,2.12,14.51.08l1.33,2.47A16.15,16.15,0,0,1,39.89,41.43ZM-1.87,36.82l.57-1.28h0Zm41.76-2.31a27,27,0,0,1-9.06-1.73c-5.2-1.87-7.41-1.2-13.32.6l-1.45.44C8.63,36-2,31.38-2.44,31.18l1.14-2.56h0c.13.06,10.14,4.43,16.55,2.51l1.44-.44c6-1.82,9-2.73,15.08-.55,5.83,2.09,10.72,2.12,14.51.08l1.33,2.47A16.15,16.15,0,0,1,39.89,34.51ZM-1.87,29.9l.57-1.28h0ZM39.89,27a27,27,0,0,1-9.06-1.73c-5.2-1.87-7.41-1.2-13.32.6l-1.45.44C8.63,28.53-2,23.87-2.44,23.67l1.14-2.56h0c.13.06,10.14,4.43,16.55,2.51l1.44-.44c6-1.82,9-2.73,15.08-.55,5.83,2.09,10.72,2.12,14.51.08l1.33,2.47A16.15,16.15,0,0,1,39.89,27ZM-1.87,22.39l.57-1.28h0Zm41.76-2.31a27,27,0,0,1-9.06-1.73c-5.2-1.87-7.41-1.2-13.32.6l-1.45.44C8.63,21.6-2,16.95-2.44,16.75l1.14-2.56-.57,1.28.57-1.28c.1,0,10.13,4.43,16.55,2.51l1.44-.44c6-1.82,9-2.73,15.08-.55,5.83,2.09,10.72,2.12,14.51.08l1.33,2.47A16.15,16.15,0,0,1,39.89,20.08Zm0-6.92a27,27,0,0,1-9.06-1.73c-5.2-1.87-7.41-1.2-13.32.6l-1.45.44C8.63,14.68-2,10-2.44,9.82L-1.3,7.26h0c.13.06,10.14,4.43,16.55,2.51l1.44-.44c6-1.82,9-2.73,15.08-.55,5.83,2.09,10.72,2.12,14.51.08l1.33,2.47A16.15,16.15,0,0,1,39.89,13.15ZM-1.87,8.54l.57-1.28h0Z"/></g></svg>