<svg id="Layer_1" data-name="Layer 1" xmlns="http://www.w3.org/2000/svg" viewBox="0 0 48 48"><defs><style>.cls-1{fill:#02486e;}</style></defs><title>Mansta_Ikonos</title><path class="cls-1" d="M31.24,39.24A19.44,19.44,0,1,1,41.79,22c0,.15,0,.3,0,.46a10,10,0,0,1,2.43,1.47c.06-.64.1-1.28.1-1.93A22,22,0,1,0,33.57,40.8a10.05,10.05,0,0,1-2.33-1.56"/><path class="cls-1" d="M22.32,33.23c-3,0-5-.9-5.83-2.67-2.1-4.41,4.13-12.33,4.85-13.21l.73-.91.75.89c.75.89,7.29,8.87,5.25,13.27C27.26,32.34,25.32,33.23,22.32,33.23ZM22.1,19.5c-2.3,3.12-5,8-3.88,10.23.5,1,1.88,1.57,4.1,1.57s3.53-.51,4-1.52C27.37,27.54,24.53,22.65,22.1,19.5ZM28.26,14H16.39a1,1,0,0,1,0-1.92H28.26a1,1,0,0,1,0,1.92Z"/><path class="cls-1" d="M42.81,48l-4.33-3.74L34.27,47.9V39.45a8.81,8.81,0,1,1,8.53.29Zm-4.33-6.28,2.4,2.08V40.45a8.84,8.84,0,0,1-4.69-.14v3.38ZM38.8,25a6.89,6.89,0,1,0,6.89,6.89A6.9,6.9,0,0,0,38.8,25Z"/><path class="cls-1" d="M38.72,36.68l-3.16-2.73a1,1,0,0,1,1.26-1.45l1.53,1.33,3.14-4.56a1,1,0,1,1,1.58,1.09Z"/></svg>