<svg id="Layer_1" data-name="Layer 1" xmlns="http://www.w3.org/2000/svg" viewBox="0 0 48 48"><defs><style>.cls-1{fill:#02486e;}</style></defs><title>Mansta_Ikonos</title><path class="cls-1" d="M24,1.37V2.74A21.26,21.26,0,1,1,9,9,21.19,21.19,0,0,1,24,2.74V0A24,24,0,1,0,48,24,24,24,0,0,0,24,0Z"/><path class="cls-1" d="M33.34,35.44H14.66V12.55H33.34Zm-16.58-2.1H31.24V14.66H16.76Z"/><rect class="cls-1" x="20.98" y="25.47" width="2.01" height="2.01" transform="translate(-12.28 23.31) rotate(-45)"/><rect class="cls-1" x="25.45" y="25.47" width="2.01" height="2.01" transform="translate(-10.98 26.47) rotate(-45)"/><rect class="cls-1" x="18.75" y="28.98" width="2.01" height="2.01" transform="translate(-15.42 22.75) rotate(-45)"/><rect class="cls-1" x="23.22" y="28.98" width="2.01" height="2.01" transform="translate(-14.11 25.91) rotate(-45)"/><rect class="cls-1" x="27.69" y="28.98" width="2.01" height="2.01" transform="translate(-12.8 29.07) rotate(-45)"/></svg>