<svg id="Layer_1" data-name="Layer 1" xmlns="http://www.w3.org/2000/svg" viewBox="0 0 48 48"><defs><style>.cls-1{fill:#02486e;}</style></defs><title>Mansta_Ikonos</title><path class="cls-1" d="M24,1.37V2.74A21.26,21.26,0,1,1,9,9,21.19,21.19,0,0,1,24,2.74V0A24,24,0,1,0,48,24,24,24,0,0,0,24,0Z"/><path class="cls-1" d="M15.95,13.85c-1.9,0-4,3.62-4,8.82s2.11,8.82,4,8.82,4-3.62,4-8.82-2.11-8.82-4-8.82m0,19.23c-3.14,0-5.61-4.58-5.61-10.42s2.47-10.42,5.61-10.42,5.61,4.58,5.61,10.42-2.47,10.42-5.61,10.42"/><path class="cls-1" d="M35.18,23.47a.8.8,0,0,1-.8-.8c0-5.19-2.11-8.82-4-8.82a.8.8,0,1,1,0-1.6c3.14,0,5.61,4.58,5.61,10.42a.8.8,0,0,1-.8.8"/><path class="cls-1" d="M15.95,20.26c-.2,0-.8.85-.8,2.4s.6,2.4.8,2.4.8-.85.8-2.4-.6-2.4-.8-2.4m0,6.41c-1.37,0-2.4-1.72-2.4-4s1-4,2.4-4,2.4,1.72,2.4,4-1,4-2.4,4"/><path class="cls-1" d="M30.85,33.09H25a.82.82,0,1,1,0-1.6h5.86a.82.82,0,1,1,0,1.6"/><path class="cls-1" d="M30.85,25.87H25a.82.82,0,1,1,0-1.6h5.86a.82.82,0,1,1,0,1.6"/><path class="cls-1" d="M30.37,13.85H15.95a.8.8,0,0,1,0-1.6H30.37a.8.8,0,0,1,0,1.6"/><path class="cls-1" d="M35.18,37.9H20.75a.8.8,0,0,1-.8-.8V22.67a.8.8,0,0,1,1.6,0V36.29H34.38V22.67a.8.8,0,0,1,1.6,0V37.09a.8.8,0,0,1-.8.8"/></svg>