<svg id="Layer_1" data-name="Layer 1" xmlns="http://www.w3.org/2000/svg" viewBox="0 0 48 48"><defs><style>.cls-1{fill:#02486e;}</style></defs><title>Mansta_Ikonos</title><path class="cls-1" d="M24,0A24,24,0,1,0,48,24,24,24,0,0,0,24,0ZM39,39a21.26,21.26,0,1,1,6.23-15A21.19,21.19,0,0,1,39,39Z"/><path class="cls-1" d="M24,22.46a7.3,7.3,0,1,1,7.3-7.3A7.31,7.31,0,0,1,24,22.46Zm0-12a4.67,4.67,0,1,0,4.67,4.67A4.67,4.67,0,0,0,24,10.49Z"/><path class="cls-1" d="M36.16,37.51H11.84V36.2a12.16,12.16,0,0,1,24.32,0Zm-21.6-2.63H33.44a9.53,9.53,0,0,0-18.88,0Z"/></svg>