<svg id="Layer_1" data-name="Layer 1" xmlns="http://www.w3.org/2000/svg" viewBox="0 0 48 48"><defs><style>.cls-1{fill:#02486e;}</style></defs><title>Mansta_Ikonos</title><path class="cls-1" d="M24,0A24,24,0,1,0,48,24,24,24,0,0,0,24,0ZM39,39a21.26,21.26,0,1,1,6.23-15A21.19,21.19,0,0,1,39,39Z"/><path class="cls-1" d="M37.3,14.75l-1-.84H11.68l-1,.84L8.92,26.28l1.8,7.56,1,.76H36.32l1-.76,1.8-7.57ZM12.52,15.89h23l1.45,9.35H11.07Zm23,16.73H12.46l-1.29-5.41H36.83Z"/><rect class="cls-1" x="18.13" y="18.48" width="11.74" height="1.97"/><circle class="cls-1" cx="14.93" cy="29.99" r="1.76"/><circle class="cls-1" cx="19.32" cy="29.99" r="1.76"/><rect class="cls-1" x="14.02" y="29.99" width="1.83" height="14.52"/><rect class="cls-1" x="18.4" y="29.99" width="1.83" height="16.11"/></svg>