<svg id="Layer_1" data-name="Layer 1" xmlns="http://www.w3.org/2000/svg" viewBox="0 0 54 48"><defs><style>.cls-1{fill:#02486e;}</style></defs><title>Mansta_Ikonos</title><path class="cls-1" d="M43.85,44.82A9.79,9.79,0,1,1,53.64,35,9.8,9.8,0,0,1,43.85,44.82Zm0-17.17A7.38,7.38,0,1,0,51.23,35,7.39,7.39,0,0,0,43.85,27.65Z"/><path class="cls-1" d="M43.82,40.66l-3.67-3.18a1.32,1.32,0,0,1,1.72-2l1.45,1.26L46.58,32a1.32,1.32,0,0,1,2.17,1.49Z"/><path class="cls-1" d="M27.2,34H13.74L7,22.36,13.74,10.7H27.2l6.73,11.66ZM15.26,31.38H25.68l5.21-9-5.21-9H15.26l-5.21,9Z"/><path class="cls-1" d="M45.09,23.67H31.63L24.9,12,31.63.36H45.09L51.82,12ZM33.15,21H43.57l5.21-9L43.57,3H33.15l-5.21,9Z"/><path class="cls-1" d="M34.07,42.9A21.25,21.25,0,1,1,24.36,2.74,21.43,21.43,0,0,1,28,3.05L29.27.5A24,24,0,1,0,36,45,12.8,12.8,0,0,1,34.07,42.9Z"/><path class="cls-1" d="M16.27,16.82H21c2.75,0,4.41,1.63,4.41,4v0c0,2.66-2.07,4-4.65,4H18.8v3.45H16.27Zm4.54,5.8a1.78,1.78,0,0,0,2-1.74v0c0-1.13-.79-1.74-2.05-1.74h-2v3.52Z"/><path class="cls-1" d="M33.34,6.28h2.33l5.39,7.09V6.28h2.5V17.79H41.41l-5.57-7.32v7.32h-2.5Z"/></svg>