<svg id="Layer_1" data-name="Layer 1" xmlns="http://www.w3.org/2000/svg" viewBox="0 0 48 48"><defs><style>.cls-1{fill:#02486e;}</style></defs><title>Mansta_Ikonos</title><path class="cls-1" d="M24,1.37V2.74A21.26,21.26,0,1,1,9,9,21.19,21.19,0,0,1,24,2.74V0A24,24,0,1,0,48,24,24,24,0,0,0,24,0Z"/><path class="cls-1" d="M20.83,28.2v2.24c-.24,0-.49,0-.75,0a7.56,7.56,0,1,1,0-15.11c.25,0,.5,0,.75,0v2.24a5.33,5.33,0,1,0,0,10.56"/><path class="cls-1" d="M27.86,21.77h4.37v2.31H27.86a5.33,5.33,0,0,0,6,4.12v2.24c-.25,0-.5,0-.75,0a7.56,7.56,0,0,1,0-15.11c.25,0,.5,0,.75,0v2.24a5.41,5.41,0,0,0-.75-.05,5.35,5.35,0,0,0-5.21,4.18"/></svg>