<svg id="Layer_1" data-name="Layer 1" xmlns="http://www.w3.org/2000/svg" viewBox="0 0 48 48"><defs><style>.cls-1{fill:#02486e;}</style></defs><title>Mansta_Ikonos</title><path class="cls-1" d="M24,1.37V2.74A21.26,21.26,0,1,1,9,9,21.19,21.19,0,0,1,24,2.74V0A24,24,0,1,0,48,24,24,24,0,0,0,24,0Z"/><path class="cls-1" d="M31.88,19.34H16.12a1.05,1.05,0,0,1,0-2.1H31.88a1.05,1.05,0,0,1,0,2.1Z"/><path class="cls-1" d="M26.84,27.84H21.16a1.05,1.05,0,0,1-1-.79l-2.19-8.5A1.05,1.05,0,1,1,20,18l2,7.71H26L28,18a1.05,1.05,0,0,1,2,.52l-2.19,8.5A1.05,1.05,0,0,1,26.84,27.84Z"/><path class="cls-1" d="M24,39.84a1.05,1.05,0,0,1-1.05-1.05V27.14a1.05,1.05,0,1,1,2.1,0V38.79A1.05,1.05,0,0,1,24,39.84Zm3.37-20.93a1.05,1.05,0,0,1-1.05-1.05V11.11a1.05,1.05,0,1,1,2.1,0v6.74A1.05,1.05,0,0,1,27.37,18.91Zm-6.74,0a1.05,1.05,0,0,1-1.05-1.05V11.11a1.05,1.05,0,1,1,2.1,0v6.74A1.05,1.05,0,0,1,20.63,18.91Z"/></svg>