<svg id="Layer_1" data-name="Layer 1" xmlns="http://www.w3.org/2000/svg" xmlns:xlink="http://www.w3.org/1999/xlink" viewBox="0 0 48 48"><defs><style>.cls-1{fill:none;}.cls-2{fill:#02486e;}.cls-3{clip-path:url(#clip-path);}</style><clipPath id="clip-path"><path class="cls-1" d="M6.72,24A17.28,17.28,0,1,0,24,6.72,17.28,17.28,0,0,0,6.72,24"/></clipPath></defs><title>Mansta_Ikonos</title><path class="cls-2" d="M24,1.37V2.74A21.26,21.26,0,1,1,9,9,21.19,21.19,0,0,1,24,2.74V0A24,24,0,1,0,48,24,24,24,0,0,0,24,0Z"/><g class="cls-3"><path class="cls-2" d="M52.8,47.32l-7.54-7.54,1.49-1.49,7.54,7.54Zm-24.87,0-7.54-7.54,1.49-1.49,7.54,7.54Zm12.43,0-7.54-7.54,1.49-1.49,7.54,7.54Zm-24.87,0L8,39.78l1.49-1.49L17,45.84Zm25-6.27L39,39.57,46.58,32l1.49,1.49Zm-12.43,0L26.6,39.57,34.15,32l1.49,1.49Zm-24.87,0L1.74,39.57,9.28,32l1.49,1.49Zm12.43,0-1.49-1.49L21.71,32l1.49,1.49ZM52.8,34.78l-7.54-7.54,1.49-1.49,7.54,7.54Zm-24.87,0-7.54-7.54,1.49-1.49,7.54,7.54Zm12.43,0-7.54-7.54,1.49-1.49,7.54,7.54Zm-24.87,0L8,27.24l1.49-1.49L17,33.3Zm25-6.27L39,27l7.54-7.54L48.07,21Zm-12.43,0L26.6,27l7.54-7.54L35.63,21Zm-24.87,0L1.74,27l7.54-7.54L10.77,21Zm12.43,0L14.17,27l7.54-7.54L23.2,21ZM52.8,22.25,45.25,14.7l1.49-1.49,7.54,7.54Zm-24.87,0L20.39,14.7l1.49-1.49,7.54,7.54Zm12.43,0L32.82,14.7l1.49-1.49,7.54,7.54Zm-24.87,0L8,14.7l1.49-1.49L17,20.76Zm25-6.27L39,14.49l7.54-7.54,1.49,1.49ZM28.09,16,26.6,14.49l7.54-7.54,1.49,1.49ZM3.23,16,1.74,14.49,9.28,6.95l1.49,1.49Zm12.43,0-1.49-1.49,7.54-7.54L23.2,8.43ZM52.8,9.71,45.25,2.16,46.74.68l7.54,7.54Zm-24.87,0L20.39,2.16,21.87.68l7.54,7.54Zm12.43,0L32.82,2.16,34.31.68l7.54,7.54Zm-24.87,0L8,2.16,9.44.68,17,8.22Z"/></g></svg>