<svg id="Layer_1" data-name="Layer 1" xmlns="http://www.w3.org/2000/svg" viewBox="0 0 54 48"><defs><style>.cls-1{fill:#02486e;}</style></defs><title>Mansta_Ikonos</title><path class="cls-1" d="M27.42,45,25.31,45s.11-4.57-.23-9.65a20.94,20.94,0,0,0-2.71-8.78l-.24-.46h-3.9l-.09.38L18,27.1c-.57,2.41-3.53,16-3.56,16.15l-2.05-.45c.12-.56,3-13.76,3.57-16.2l.15-.63a17.14,17.14,0,0,0,.55-2.92h-.06c-1.19,0-2.81.06-3.38-1.15s.32-2.23,1-3c2.74-3.14,4.49-4.74,6.46-4.74h8.18c.81,0,1.69.59,1.75,2.26,0,1-.26,3-1.67,3.11a8.66,8.66,0,0,1-1.28-.06,8.61,8.61,0,0,0-2.45,0c-.64.72-1.66,4.58-1.29,5.4.08.18.21.41.36.69a22.86,22.86,0,0,1,3,9.62C27.53,40.39,27.42,45,27.42,45ZM18.67,24h3.06c.1-2.32,1.23-5.58,2.24-6.25.85-.57,2.18-.5,3.83-.35l.57,0a3.29,3.29,0,0,0,.09-1.16H20.64c-1.26,0-3.18,2.07-4.87,4a5,5,0,0,0-.48.63,10,10,0,0,0,1.25,0H17a1.67,1.67,0,0,1,1.35.63A3.08,3.08,0,0,1,18.67,24Zm9.68,4c-1.86-1.24-2.34-5.75-2.45-7.1l2.1-.16c.18,2.25.84,5.06,1.52,5.51Z"/><rect class="cls-1" x="31.2" y="15.75" width="1.7" height="1.7"/><path class="cls-1" d="M43.93,44.33a9.63,9.63,0,1,1,9.63-9.63A9.65,9.65,0,0,1,43.93,44.33Zm0-17.17a7.53,7.53,0,1,0,7.53,7.53A7.54,7.54,0,0,0,43.93,27.16Z"/><path class="cls-1" d="M43.84,39.94l-3.45-3a1.05,1.05,0,0,1,1.38-1.59l1.67,1.45,3.43-5A1.05,1.05,0,1,1,48.6,33Z"/><path class="cls-1" d="M34.14,42.9A21.29,21.29,0,1,1,45.63,22.72a12.7,12.7,0,0,1,2.77.57A24,24,0,1,0,36.07,45a12.81,12.81,0,0,1-1.93-2.08"/></svg>