<svg id="Layer_1" data-name="Layer 1" xmlns="http://www.w3.org/2000/svg" viewBox="0 0 48 48"><defs><style>.cls-1{fill:#02486e;}</style></defs><title>Mansta_Ikonos</title><path class="cls-1" d="M24,0A24,24,0,1,0,48,24,24,24,0,0,0,24,0ZM39,39a21.26,21.26,0,1,1,6.23-15A21.19,21.19,0,0,1,39,39Z"/><path class="cls-1" d="M32.11,17.95c-1.66-2.33-3.29-3.62-6.12-3.62-3,0-5.32,2.33-6.35,5.69h8.55v2.06h-9a18.11,18.11,0,0,0-.1,1.9,13.92,13.92,0,0,0,.07,1.7h9v2.1H19.54c1,3.59,3.53,5.92,6.82,5.92,2.63,0,4.32-1.5,5.92-3.82l1.9,1.33C32.35,33.94,30,36,26.26,36c-4.72,0-8.25-3.33-9.41-8.28h-3v-2.1h2.69A12.83,12.83,0,0,1,16.45,24a18.91,18.91,0,0,1,.1-2H13.82V20h3.13c1.23-4.66,4.66-8,9.15-8,3.92,0,6.25,1.93,8,4.56Z"/></svg>