<?xml version="1.0" encoding="utf-8"?>
<!-- Generator: Adobe Illustrator 23.0.1, SVG Export Plug-In . SVG Version: 6.00 Build 0)  -->
<svg version="1.1" baseProfile="basic" id="Layer_1"
	 xmlns="http://www.w3.org/2000/svg" xmlns:xlink="http://www.w3.org/1999/xlink" x="0px" y="0px" viewBox="0 0 48 48"
	 xml:space="preserve">
<style type="text/css">
	.st0{fill:#FFFFFF;}
</style>
<path class="st0" d="M24,0C10.74,0,0,10.74,0,24c0,13.25,10.74,24,24,24c13.26,0,24-10.75,24-24C48,10.74,37.26,0,24,0z
	 M39.03,39.03c-3.85,3.85-9.16,6.23-15.03,6.23c-5.88,0-11.18-2.38-15.03-6.23C5.12,35.18,2.74,29.87,2.74,24
	c0-5.88,2.38-11.18,6.23-15.03C12.82,5.12,18.12,2.74,24,2.74c5.88,0,11.18,2.38,15.03,6.23c3.85,3.85,6.23,9.16,6.23,15.03
	C45.26,29.87,42.88,35.18,39.03,39.03z"/>
<g>
	<path class="st0" d="M40.22,13.46c0.77,2.93-0.9,6-3.92,6.83c-0.88,0.25-1.78,0.27-2.67,0.07c-0.14-0.03-0.22-0.01-0.32,0.09
		c-4.47,4.47-8.94,8.94-13.41,13.41c-1.34,1.34-2.67,2.68-4.01,4c-1.16,1.14-3.01,1.11-4.12-0.05c-1.08-1.13-1.07-2.91,0.05-4.03
		c1.13-1.14,2.28-2.28,3.42-3.42c4.66-4.66,9.32-9.33,13.99-13.99c0.11-0.11,0.12-0.2,0.09-0.34c-0.64-3.19,1.37-6.14,4.58-6.69
		c0.77-0.14,1.55-0.09,2.33,0.11c-0.06,0.06-0.1,0.11-0.15,0.16c-0.7,0.7-1.41,1.39-2.09,2.1c-0.77,0.8-1.02,1.75-0.69,2.81
		c0.32,1.04,1.05,1.7,2.12,1.92c0.99,0.21,1.85-0.07,2.57-0.78c0.69-0.68,1.38-1.38,2.07-2.07C40.11,13.57,40.16,13.53,40.22,13.46z
		 M13.88,34.68c-0.65,0-1.17,0.51-1.17,1.15c0,0.64,0.52,1.16,1.16,1.17c0.63,0,1.15-0.52,1.16-1.15
		C15.03,35.2,14.52,34.68,13.88,34.68z"/>
	<path class="st0" d="M22.21,10.45c-0.28,0.27-0.53,0.53-0.8,0.77c-0.05,0.05-0.16,0.06-0.24,0.05c-1.67-0.17-3.24,0.17-4.66,1.06
		c-0.47,0.3-0.9,0.66-1.35,1c2.68,2.68,5.32,5.32,7.95,7.94c-0.89,0.89-1.75,1.74-2.62,2.61c-0.01-0.01-0.06-0.05-0.11-0.1
		c-1.71-1.71-3.42-3.43-5.14-5.14c-1.1-1.1-2.93-0.61-3.33,0.88c-0.09,0.34-0.08,0.68,0.01,1.02c0.02,0.06,0.01,0.16-0.02,0.2
		c-0.74,0.76-1.5,1.51-2.23,2.25c-1.36-1.37-2.72-2.72-4.08-4.08c0.02-0.02,0.05-0.06,0.1-0.11c0.69-0.69,1.38-1.38,2.07-2.07
		c0.09-0.09,0.16-0.12,0.3-0.09c1.48,0.38,2.78-0.93,2.42-2.41c-0.02-0.08-0.01-0.2,0.04-0.25c0.92-0.93,1.82-1.88,2.78-2.76
		c2.41-2.21,5.91-2.56,8.72-0.9C22.07,10.35,22.12,10.39,22.21,10.45z"/>
	<path class="st0" d="M25.04,29.98c1.39-1.39,2.74-2.75,4.1-4.11c0.03,0.02,0.07,0.06,0.1,0.09c2.6,2.6,5.2,5.2,7.8,7.8
		c1.44,1.44,1.05,3.81-0.77,4.68c-1.11,0.53-2.42,0.3-3.31-0.6c-1.25-1.25-2.5-2.5-3.75-3.75c-1.33-1.33-2.65-2.65-3.98-3.98
		C25.17,30.06,25.09,30.02,25.04,29.98z"/>
</g>
</svg>
